<?xml version="1.0" encoding="utf-8"?>
<svg viewBox="0 0 500 500" xmlns="http://www.w3.org/2000/svg">
  <path d="M 436.254 78.514 C 436.254 78.514 434.857 76.514 371.257 3.846 L 371.257 78.514 L 436.254 78.514 Z" style="paint-order: fill; fill: rgb(0, 159, 183);"/>
  <path d="M 425.733 87.809 L 425.733 98.29 L 425.774 98.29 L 425.774 470.59 C 425.774 477.916 419.814 483.876 412.487 483.876 L 103.668 483.876 C 96.341 483.876 90.381 477.916 90.381 470.59 L 90.381 27.614 C 90.381 20.287 96.341 14.327 103.668 14.327 L 351.742 14.327 L 351.742 14.346 L 362.222 14.346 L 362.222 3.846 L 103.668 3.846 C 90.595 3.846 79.9 14.541 79.9 27.614 L 79.9 470.59 C 79.9 483.661 90.595 494.358 103.668 494.358 L 412.487 494.358 C 425.559 494.358 436.255 483.662 436.255 470.59 L 436.255 87.809 L 425.733 87.809 Z" style="paint-order: fill; fill: rgb(0, 159, 183);"/>
  <path d="M 66.9 72.846 L 66.9 154.846 L 286.567 154.846 L 286.567 72.846 L 66.9 72.846 Z M 135.46 95.278 L 108.197 95.278 L 108.197 108.621 L 131.73 108.621 L 131.73 118.157 L 108.197 118.157 L 108.197 142.113 L 96.815 142.113 L 96.815 85.742 L 135.46 85.742 L 135.46 95.278 Z M 155.878 142.113 L 144.496 142.113 L 144.496 85.742 L 155.878 85.742 L 155.878 142.113 Z M 206.712 142.113 L 167.029 142.113 L 167.029 86.204 L 178.411 86.204 L 178.411 132.615 L 206.712 132.615 L 206.712 142.113 Z M 257.699 142.113 L 214.825 142.113 L 214.825 85.742 L 256.623 85.742 L 256.623 95.278 L 226.207 95.278 L 226.207 107.775 L 254.508 107.775 L 254.508 117.273 L 226.207 117.273 L 226.207 132.615 L 257.699 132.615 L 257.699 142.113 Z" style="paint-order: fill; fill: rgb(0, 159, 183);"/>
</svg>